<svg id="Capa_1" enable-background="new 0 0 512 512" height="512" viewBox="0 0 512 512" width="512" xmlns="http://www.w3.org/2000/svg"><g><g><path d="m356.09 447.486-24.071-47.866-75.271-10-76.273 10-24.071 47.866 100.344 10z" fill="#d0cdd3"/><path d="m42.5 399.62c-19.25 0-35-15.784-35-35.076v-309.968c0-19.292 15.75-35.076 35-35.076h427c19.25 0 35 15.784 35 35.076v309.969c0 19.292-15.75 35.076-35 35.076h-427z" fill="#e0dee2"/><path d="m55.5 399.62h-13c-19.25 0-35-15.78-35-35.08v-309.96c0-19.3 15.75-35.08 35-35.08h13c-19.25 0-35 15.78-35 35.08v309.96c0 19.3 15.75 35.08 35 35.08z" fill="#d0cdd3"/><path d="m455.06 49.986c10.692 0 19.44 8.767 19.44 19.482v279.724c0 10.715-8.748 19.482-19.44 19.482h-400.12c-10.692 0-19.44-8.767-19.44-19.482v-279.724c0-10.715 8.748-19.482 19.44-19.482z" fill="#f9f8f8"/><path d="m79.94 368.67h-25c-10.69 0-19.44-8.76-19.44-19.48v-279.72c0-10.72 8.75-19.48 19.44-19.48h25c-10.69 0-19.44 8.76-19.44 19.48v279.72c0 10.72 8.75 19.48 19.44 19.48z" fill="#ede8e5"/><path d="m386.487 492.5h-259.477c-12.401 0-22.455-10.076-22.455-22.507s10.054-22.507 22.455-22.507h259.478c12.401 0 22.455 10.076 22.455 22.507s-10.054 22.507-22.456 22.507z" fill="#e0dee2"/><path d="m147.01 492.5h-20c-12.4 0-22.46-10.08-22.46-22.51s10.06-22.5 22.46-22.5h20c-12.4 0-22.46 10.07-22.46 22.5s10.06 22.51 22.46 22.51z" fill="#d0cdd3"/><path d="m301.19 142.82-63.59 145.59c-2.58 5.9-8.35 9.42-14.4 9.42-2.1 0-4.23-.42-6.28-1.32-.42-.18-.83-.39-1.23-.6-7.09-3.85-10.17-12.55-6.88-20.08l63.59-145.58c3.28-7.49 11.69-11.14 19.3-8.62.46.15.92.32 1.38.52 7.95 3.47 11.58 12.72 8.11 20.67z" fill="#f7f06d"/><path d="m291.7 121.63-75.29 172.36c-.28.63-.52 1.27-.72 1.92-7.09-3.85-10.17-12.55-6.88-20.08l63.59-145.58c3.28-7.49 11.69-11.14 19.3-8.62z" fill="#ed5"/><path d="m161.792 292.171c-4.019 0-8.039-1.533-11.105-4.599l-58.892-58.892c-6.132-6.133-6.132-16.077 0-22.21l57.794-57.794c5.979-5.979 15.719-6.529 21.973-.838 6.678 6.077 6.861 16.424.55 22.735l-43.467 43.466c-1.953 1.953-1.953 5.118 0 7.071l44.252 44.251c6.132 6.133 6.132 16.077 0 22.21-3.066 3.067-7.086 4.6-11.105 4.6z" fill="#f7f06d"/><path d="m171.79 288.57c-2.89 2.4-6.45 3.6-10 3.6-4.02 0-8.04-1.53-11.1-4.6l-58.89-58.89c-6.14-6.13-6.14-16.08 0-22.21l57.79-57.79c5.82-5.82 15.2-6.5 21.46-1.29-.51.39-.99.82-1.46 1.29l-57.79 57.79c-6.14 6.13-6.14 16.08 0 22.21l58.89 58.89c.35.35.72.69 1.1 1z" fill="#ed5"/><path d="m418.2 228.68-58.89 58.89c-6.13 6.13-16.07 6.13-22.21 0-1.26-1.26-2.26-2.69-3-4.21-2.87-5.85-1.87-13.13 3-18l44.254-44.254c1.953-1.953 1.953-5.118 0-7.071l-43.464-43.465c-4.87-4.87-5.87-12.14-3-18 .73-1.52 1.74-2.95 3-4.21 6.13-6.13 16.07-6.13 22.21 0l58.1 58.11c6.14 6.13 6.14 16.08 0 22.21z" fill="#f7f06d"/><path d="m401.35 221.11-65.07 65.57c-.88-1.03-1.61-2.15-2.18-3.32-2.87-5.85-1.87-13.13 3-18l44.25-44.25c1.96-1.96 1.96-5.12 0-7.08l-43.46-43.46c-4.87-4.87-5.87-12.14-3-18 .58-1.2 1.33-2.35 2.25-3.4l64.21 64.86c1.96 1.96 1.96 5.12 0 7.08z" fill="#ed5"/></g><g><path d="m469.5 12h-427c-23.435 0-42.5 19.1-42.5 42.576v309.969c0 23.476 19.065 42.576 42.5 42.576h125.808l-16.527 32.865h-24.771c-16.517 0-29.955 13.461-29.955 30.007s13.438 30.007 29.955 30.007h205.479c4.142 0 7.5-3.358 7.5-7.5s-3.358-7.5-7.5-7.5h-205.479c-8.246 0-14.955-6.732-14.955-15.007s6.709-15.007 14.955-15.007h259.478c8.246 0 14.955 6.732 14.955 15.007s-6.71 15.007-14.956 15.007h-18.487c-4.142 0-7.5 3.358-7.5 7.5s3.358 7.5 7.5 7.5h18.487c16.517 0 29.955-13.461 29.955-30.007s-13.438-30.007-29.955-30.007h-25.774l-16.528-32.865h125.315c23.435 0 42.5-19.1 42.5-42.576v-309.969c0-23.476-19.065-42.576-42.5-42.576zm-125.576 427.986h-175.353l16.527-32.865h142.298zm153.076-75.441c0 15.205-12.336 27.576-27.5 27.576h-427c-15.164 0-27.5-12.371-27.5-27.576v-309.969c0-15.205 12.336-27.576 27.5-27.576h427c15.164 0 27.5 12.371 27.5 27.576z"/><path d="m455.06 42.486h-319.06c-4.142 0-7.5 3.358-7.5 7.5s3.358 7.5 7.5 7.5h319.06c6.583 0 11.94 5.375 11.94 11.982v279.724c0 6.607-5.356 11.982-11.94 11.982h-400.12c-6.583 0-11.94-5.375-11.94-11.982v-279.724c0-6.607 5.356-11.982 11.94-11.982h46.06c4.142 0 7.5-3.358 7.5-7.5s-3.358-7.5-7.5-7.5h-46.06c-14.855 0-26.94 12.104-26.94 26.982v279.724c0 14.878 12.085 26.982 26.94 26.982h400.12c14.854 0 26.94-12.104 26.94-26.982v-279.724c0-14.878-12.085-26.982-26.94-26.982z"/><path d="m223.197 305.33c9.229 0 17.579-5.464 21.273-13.92l63.589-145.584c5.12-11.725-.252-25.431-11.979-30.554-11.726-5.117-25.43.257-30.551 11.978l-63.589 145.583c-5.121 11.725.252 25.431 11.979 30.554 2.954 1.289 6.075 1.943 9.278 1.943zm-7.51-26.493 63.589-145.583c1.346-3.08 4.368-4.92 7.533-4.92 1.094 0 2.206.22 3.271.685 4.146 1.811 6.045 6.657 4.235 10.803l-63.589 145.583c-1.307 2.991-4.262 4.924-7.528 4.924-1.125 0-2.229-.232-3.275-.689-4.147-1.81-6.047-6.657-4.236-10.803z"/><path d="m86.492 201.166c-9.046 9.047-9.046 23.769 0 32.816l58.892 58.892c4.382 4.382 10.209 6.796 16.408 6.796s12.026-2.414 16.409-6.796c9.046-9.047 9.046-23.769 0-32.816l-42.484-42.483 41.699-41.699c9.046-9.047 9.046-23.769 0-32.816-9.047-9.048-23.769-9.048-32.817 0l-15.235 15.235c-2.929 2.929-2.929 7.678 0 10.606 2.929 2.93 7.678 2.929 10.606 0l15.235-15.235c3.199-3.2 8.405-3.2 11.604-.001 3.199 3.2 3.199 8.405 0 11.604l-47.002 47.001c-1.407 1.406-2.197 3.314-2.197 5.303s.79 3.897 2.197 5.303l47.787 47.786c3.199 3.2 3.199 8.405 0 11.604-3.053 3.182-8.55 3.182-11.604 0l-58.892-58.892c-3.199-3.199-3.199-8.404 0-11.604l18.086-18.087c2.929-2.929 2.929-7.678 0-10.606-2.929-2.929-7.678-2.929-10.606 0z"/><path d="m331.8 292.875c4.523 4.523 10.465 6.785 16.408 6.784 5.942 0 11.884-2.261 16.408-6.785l22.045-22.045c2.929-2.929 2.929-7.678 0-10.606-2.929-2.929-7.678-2.929-10.606 0l-22.044 22.044c-3.2 3.199-8.405 3.199-11.604.001-3.199-3.2-3.199-8.405 0-11.604l47.788-47.787c1.407-1.406 2.197-3.314 2.197-5.303s-.79-3.897-2.197-5.303l-47.002-47.001c-3.199-3.2-3.199-8.405 0-11.604s8.405-3.199 11.604 0l58.106 58.107c3.199 3.199 3.199 8.404 0 11.604l-12.063 12.063c-2.929 2.929-2.929 7.678 0 10.606 2.929 2.929 7.678 2.929 10.606 0l12.063-12.063c9.046-9.047 9.046-23.769 0-32.816l-58.106-58.107c-9.047-9.046-23.769-9.047-32.817.001-9.046 9.047-9.046 23.769 0 32.816l41.699 41.698-42.484 42.484c-9.048 9.046-9.048 23.768-.001 32.816z"/></g></g></svg>